<?xml version="1.0" standalone="no"?>
<!DOCTYPE svg PUBLIC "-//W3C//DTD SVG 20010904//EN"
 "http://www.w3.org/TR/2001/REC-SVG-20010904/DTD/svg10.dtd">
<svg version="1.0" xmlns="http://www.w3.org/2000/svg"
 width="260.000000pt" height="260.000000pt" viewBox="0 0 260.000000 260.000000"
 preserveAspectRatio="xMidYMid meet">
<metadata>
Created by potrace 1.14, written by Peter Selinger 2001-2017
</metadata>
<g transform="translate(0.000000,260.000000) scale(0.100000,-0.100000)"
fill="#000000" stroke="none">
<path d="M292 1979 c-61 -10 -92 -24 -92 -42 0 -26 64 -145 193 -359 74 -123
147 -247 162 -276 l27 -53 -26 -38 c-15 -21 -79 -97 -144 -170 -324 -368 -410
-480 -398 -524 9 -39 56 -52 186 -52 102 0 120 3 160 24 79 42 159 113 391
348 218 220 340 360 354 403 8 25 6 29 -244 432 l-196 317 -160 -1 c-88 0
-184 -4 -213 -9z"/>
<path d="M1451 1980 c-207 -30 -217 -119 -36 -318 35 -38 64 -62 74 -60 10 2
65 57 124 123 58 66 136 153 173 193 l67 72 -174 -1 c-96 -1 -198 -5 -228 -9z"/>
<path d="M2166 1685 c-69 -24 -138 -81 -324 -268 l-184 -184 83 -134 c146
-238 192 -295 258 -320 46 -18 133 -29 242 -30 177 -2 202 29 136 166 -19 39
-65 122 -102 185 -37 63 -70 118 -72 123 -2 4 58 72 135 151 153 157 195 216
190 268 -2 28 -9 35 -38 45 -50 17 -275 16 -324 -2z"/>
<path d="M1205 727 c-98 -97 -125 -131 -136 -166 -13 -42 -12 -44 14 -67 34
-29 104 -38 266 -32 142 5 184 18 189 59 8 65 -149 329 -195 329 -9 0 -71 -55
-138 -123z"/>
</g>
</svg>
